# xmcd CD database file
#
# Track frame offsets:
#	150
#	9985
#	30814
#	54071
#	68023
#	91063
#	107197
#	136049
#	145259
#	168028
#	189190
#
# Disc length: 2778 seconds
#
# Revision: 7
# Processed by: cddbd v1.5.1PL0 Copyright (c) Steve Scherf et al.
# Submitted via: CDex 1.51
#
DISCID=710ad80b
DTITLE=くるり - TEAM ROCK
DYEAR=2001
DGENRE=Rock
TTITLE0=TEAM ROCK
TTITLE1=ワンダーフォーゲル
TTITLE2=LV30
TTITLE3=愛なき世界
TTITLE4=C'mon C'mon
TTITLE5=カレーの歌
TTITLE6=永遠
TTITLE7=トレイン・ロック・フェスティバル
TTITLE8=ばらの花
TTITLE9=迷路ゲーム
TTITLE10=リバー
EXTD=YEAR: 2001
EXTT0=
EXTT1=
EXTT2=
EXTT3=
EXTT4=
EXTT5=
EXTT6=
EXTT7=
EXTT8=
EXTT9=
EXTT10=
PLAYORDER=
